<svg width="10" height="10" viewBox="0 0 10 10" fill="none" xmlns="http://www.w3.org/2000/svg">
<path d="M4.99989 0.166992C2.31989 0.166992 0.139893 2.34699 0.139893 5.02699C0.139893 7.70699 2.31989 9.88699 4.99989 9.88699C7.67989 9.88699 9.85989 7.70699 9.85989 5.02699C9.85989 2.34699 7.67989 0.166992 4.99989 0.166992V0.166992ZM6.99989 5.74999H5.74989V6.99999C5.74989 7.41399 5.41389 7.74999 4.99989 7.74999C4.58589 7.74999 4.24989 7.41399 4.24989 6.99999V5.74999H2.99989C2.58589 5.74999 2.24989 5.41399 2.24989 4.99999C2.24989 4.58599 2.58589 4.24999 2.99989 4.24999H4.24989V2.99999C4.24989 2.58599 4.58589 2.24999 4.99989 2.24999C5.41389 2.24999 5.74989 2.58599 5.74989 2.99999V4.24999H6.99989C7.41389 4.24999 7.74989 4.58599 7.74989 4.99999C7.74989 5.41399 7.41389 5.74999 6.99989 5.74999Z" fill="white"/>
</svg>

