<svg width="24" height="24" viewBox="0 0 24 24" fill="none" xmlns="http://www.w3.org/2000/svg">
<path d="M21.697 16.4681C21.677 16.4521 19.557 14.8281 19.594 10.4381C19.614 7.90513 18.782 5.65613 17.247 4.10413C15.872 2.71113 14.01 1.94013 12.005 1.93213H11.992C9.98804 1.94013 8.12604 2.71213 6.75004 4.10413C5.21604 5.65713 4.38304 7.90613 4.40404 10.4371C4.44104 14.7691 2.38404 16.4041 2.30204 16.4671C2.04204 16.6611 1.93604 16.9971 2.03704 17.3051C2.13804 17.6131 2.42704 17.8201 2.75004 17.8201H7.24404C7.34404 20.3641 9.43204 22.4071 12 22.4071C14.568 22.4071 16.655 20.3641 16.756 17.8201H21.25C21.574 17.8201 21.86 17.6121 21.962 17.3051C22.064 16.9981 21.957 16.6611 21.697 16.4681ZM12 20.4081C10.534 20.4081 9.34304 19.2611 9.24404 17.8201H14.756C14.656 19.2601 13.466 20.4071 12 20.4071V20.4081Z" fill="#FF6600"/>
</svg>
