<svg width="24" height="24" viewBox="0 0 24 24" fill="none" xmlns="http://www.w3.org/2000/svg">
<path d="M18.265 3.31394C14.815 -0.13606 9.19497 -0.13606 5.74497 3.31394C2.29497 6.75394 2.29497 12.3739 5.74497 15.8239C7.24497 17.3139 9.17497 18.2039 11.255 18.3839V22.5239C11.255 22.8339 11.455 23.1239 11.755 23.2239C11.835 23.2539 11.925 23.2739 12.005 23.2739C12.225 23.2739 12.445 23.1739 12.595 22.9839L19.085 14.8739C21.715 11.3839 21.355 6.40394 18.265 3.31394ZM7.70497 11.1839C7.70497 10.7739 8.03497 10.4339 8.45497 10.4339H12.505C12.915 10.4339 13.255 10.7739 13.255 11.1839C13.255 11.5939 12.915 11.9339 12.505 11.9339H8.45497C8.03497 11.9339 7.70497 11.5939 7.70497 11.1839ZM16.305 7.94394C16.305 8.36394 15.965 8.69394 15.555 8.69394H8.45497C8.03497 8.69394 7.70497 8.36394 7.70497 7.94394C7.70497 7.53394 8.03497 7.19394 8.45497 7.19394H15.555C15.965 7.19394 16.305 7.53394 16.305 7.94394Z" fill="#FF6600"/>
</svg>
