<svg width="26" height="25" viewBox="0 0 26 25" fill="none" xmlns="http://www.w3.org/2000/svg">
<path d="M12.8677 24.0473H12.8502C9.62143 23.9873 0.305176 15.5698 0.305176 7.59728C0.305176 3.76728 3.46143 0.404785 7.05893 0.404785C9.92142 0.404785 11.8464 2.37979 12.8664 3.81729C13.8839 2.38229 15.8089 0.404785 18.6727 0.404785C22.2727 0.404785 25.4277 3.76729 25.4277 7.59854C25.4277 15.5685 16.1102 23.986 12.8814 24.0448H12.8677V24.0473ZM7.06018 2.28104C4.46018 2.28104 2.18143 4.76603 2.18143 7.59978C2.18143 14.7748 10.9739 22.0948 12.8689 22.1723C14.7664 22.0948 23.5564 14.776 23.5564 7.59978C23.5564 4.76603 21.2777 2.28104 18.6777 2.28104C15.5177 2.28104 13.7527 5.95104 13.7377 5.98729C13.4502 6.68979 12.2927 6.68979 12.0039 5.98729C11.9864 5.94979 10.2227 2.28104 7.06142 2.28104H7.06018Z" fill="#6C757D"/>
</svg>
