<svg width="24" height="22" viewBox="0 0 24 22" fill="none" xmlns="http://www.w3.org/2000/svg">
<path d="M8.8 5.19995H5.6V1.89995C5.6 1.49995 5.3 1.09995 4.8 1.09995C4.3 1.09995 4.1 1.49995 4.1 1.89995V5.19995H0.8C0.4 5.19995 0 5.49995 0 5.99995C0 6.49995 0.3 6.79995 0.8 6.79995H4.1V10.1C4.1 10.5 4.4 10.9 4.9 10.9C5.4 10.9 5.7 10.6 5.7 10.1V6.69995H9C9.4 6.69995 9.8 6.39995 9.8 5.89995C9.8 5.39995 9.3 5.19995 8.8 5.19995ZM23.8 0.299951V0.199951H23.7C23.6 0.199951 14.5 1.39995 9.3 11.9C5.5 19.5 5.7 21.7999 6 21.7999C6.3 21.9 9.4 15.3 12.7 12.6C17.9 11.5 19.3 8.99995 19.3 8.99995C19.3 8.99995 17.8 9.19995 17.2 9.19995C16.4 9.19995 15.8 8.99995 15.5 8.89995C16.8 7.69995 17.9 7.39995 19 7.19995C19.9 6.99995 20.8 6.79995 22 5.99995C24.2 4.39995 23.9 0.499951 23.8 0.299951Z" fill="currentColor"/>
</svg>
