<svg width="24" height="24" viewBox="0 0 24 24" fill="none" xmlns="http://www.w3.org/2000/svg">
<path d="M19.25 3H4.75C3.233 3 2 4.234 2 5.752V18.247C2 19.765 3.233 21 4.75 21H19.25C20.767 21 22 19.765 22 18.247V5.752C22 4.234 20.767 3 19.25 3ZM4.75 4.5H19.25C19.94 4.5 20.5 5.06 20.5 5.75V6.464L12.45 11.831C12.177 12.011 11.824 12.013 11.55 11.829L3.5 6.464V5.75C3.5 5.06 4.06 4.5 4.75 4.5ZM19.25 19.498H4.75C4.06 19.498 3.5 18.938 3.5 18.248V8.222L10.74 13.052C11.123 13.308 11.562 13.436 12 13.436C12.44 13.436 12.877 13.308 13.26 13.053L20.5 8.223V18.245C20.5 18.935 19.94 19.495 19.25 19.495V19.498Z" fill="#FF6600"/>
<circle cx="20" cy="5" r="3.5" fill="#FF6600" stroke="white"/>
</svg>
